<svg xmlns="http://www.w3.org/2000/svg" width="200" height="100" viewBox="0 0 200 100">
    <path d="m100.765,84.563c2.151-.153,43.773-3.238,66.466-4.192,9.597-.417,19.21-.387,28.722-.353,1.403.042,3.738.948,3.967,1.747.345,1.243-.491,3.065-1.559,3.998-2.914,2.52-6.791,3.28-10.791,3.417-14.697.591-29.39,1.272-44.091,1.774-37.4,1.277-74.907,2.378-112.31,3.565-7.2.246-14.506.316-21.71.472-3.6.123-6.645-1.028-8.734-3.468-.835-.958-.902-2.838-.444-4.02.371-.82,2.249-1.511,3.449-1.552,31.8-1.085,93.02-3.111,94.577-3.235,2.268-.18.306,1.998,2.457,1.846Z" fill="#00CEB3"/>
</svg>
