<svg width="293" height="174" viewBox="0 0 293 174" fill="none" xmlns="http://www.w3.org/2000/svg">
<g style="mix-blend-mode:multiply">
<path d="M164.93 29.9908H192.056C191.356 29.7334 189.533 29.0531 187.71 28.3727C187.857 27.7843 188.023 27.1959 188.17 26.6259C206.125 30.8918 224.153 34.79 241.96 39.5523C250.597 41.8691 258.994 45.3627 267.115 49.1138C282.399 56.1929 288.237 69.9467 291.257 85.3554C291.809 88.1687 292.085 91.0371 292.472 93.8872C295.713 117.239 283.891 129.026 260.835 143.423C259.38 144.324 257.484 144.581 256.176 145.611C235.331 162.178 210.157 166.591 184.966 170.673C142.464 177.55 100.828 173.909 60.5729 158.409C48.64 153.812 36.8913 148.369 25.8423 141.97C9.04793 132.28 1.70038 116.265 0.282427 97.5095C-2.35091 62.6285 13.5043 35.268 44.7545 19.4181C65.4529 8.93721 87.606 3.91744 110.533 2.46483C132.704 1.06739 154.986 -0.458772 177.158 0.129626C200.729 0.754799 224.097 4.59777 245.882 14.5454C248.921 15.9244 251.259 18.8113 253.083 21.9923C238.829 19.8777 224.613 17.6161 210.342 15.6854C203.178 14.7109 195.923 14.1225 188.704 13.7363C153.808 11.8608 119.298 14.4902 85.5804 23.9965C74.2184 27.1959 63.0037 31.4618 52.4151 36.6655C26.1922 49.5367 11.9575 76.1249 14.9591 104.589C15.9351 113.764 20.0969 120.898 28.2179 125.55C67.5706 148.112 109.888 157.728 155.152 154.584C177.95 153.003 200.582 150.502 222.201 142.448C238.461 136.381 253.93 128.897 267.023 117.258C281.349 104.515 284.185 90.081 275.328 72.9439C273.67 69.7261 270.558 66.968 267.52 64.7983C255.826 56.3952 241.481 53.8393 228.756 47.9002C209.347 38.8536 188.409 37.7687 168.19 33.0064C166.993 32.7306 165.888 32.0686 164.746 31.5905C164.801 31.0573 164.875 30.5241 164.93 29.9908Z" fill="#00DAC5"/>
</g>
</svg>