<svg width="187" height="22" viewBox="0 0 187 22" fill="none" xmlns="http://www.w3.org/2000/svg">
<path d="M92.7927 6.91436C113.859 5.24838 134.92 3.4826 156.005 1.9557C164.932 1.30547 173.886 1.08437 182.831 0.883864C184.132 0.850912 186.347 1.80167 186.575 2.70897C186.908 3.99039 186.207 6.03922 185.22 7.06418C182.589 9.79742 179.03 10.7061 175.289 10.9651C161.592 11.9299 147.905 13.0444 134.202 13.8995C99.3112 16.0976 64.414 18.1959 29.5174 20.3042C22.7599 20.7157 16.0022 20.9668 9.24146 21.3284C5.88637 21.5126 2.96124 20.4269 0.980299 17.8078C0.192933 16.7759 0.0162113 14.7931 0.426189 13.5244C0.701984 12.665 2.4518 11.8218 3.59946 11.7485C33.3038 9.77143 63.014 7.88414 92.7334 5.98624C92.7525 6.28563 92.7723 6.595 92.7914 6.89439L92.7927 6.91436Z" fill="#5CB7F6"/>
</svg>